<svg width="22" height="22" viewBox="0 0 22 22" fill="none" xmlns="http://www.w3.org/2000/svg">
<g clip-path="url(#clip0_549_7238)">
<path d="M7.26599 14.0002H7.26695C7.26775 14.0002 7.26855 14 7.26935 14H18.4239C18.6985 14 18.9399 13.8149 19.0154 13.5467L21.4763 4.79671C21.5294 4.60807 21.4922 4.40527 21.376 4.2487C21.2597 4.09212 21.0779 4 20.8848 4H5.8471L5.4073 1.98942C5.34466 1.70345 5.09504 1.5 4.80665 1.5H1.11524C0.775414 1.5 0.5 1.77979 0.5 2.125C0.5 2.47021 0.775414 2.75 1.11524 2.75H4.31318C4.39104 3.10628 6.4178 12.3716 6.53443 12.9046C5.88059 13.1934 5.42188 13.8556 5.42188 14.625C5.42188 15.6589 6.24989 16.5 7.26759 16.5H18.4239C18.7637 16.5 19.0391 16.2202 19.0391 15.875C19.0391 15.5298 18.7637 15.25 18.4239 15.25H7.26759C6.92841 15.25 6.65235 14.9696 6.65235 14.625C6.65235 14.2809 6.92745 14.001 7.26599 14.0002ZM20.0691 5.25L17.9597 12.75H7.76106L6.12043 5.25H20.0691Z" fill="white"/>
<path d="M6.5 18.5C6.5 19.6028 7.39722 20.5 8.5 20.5C9.60278 20.5 10.5 19.6028 10.5 18.5C10.5 17.3972 9.60278 16.5 8.5 16.5C7.39722 16.5 6.5 17.3972 6.5 18.5ZM8.5 17.8333C8.86753 17.8333 9.16667 18.1325 9.16667 18.5C9.16667 18.8675 8.86753 19.1667 8.5 19.1667C8.13247 19.1667 7.83333 18.8675 7.83333 18.5C7.83333 18.1325 8.13247 17.8333 8.5 17.8333Z" fill="white"/>
<path d="M15.5 18.5C15.5 19.6028 16.3972 20.5 17.5 20.5C18.6028 20.5 19.5 19.6028 19.5 18.5C19.5 17.3972 18.6028 16.5 17.5 16.5C16.3972 16.5 15.5 17.3972 15.5 18.5ZM17.5 17.8333C17.8675 17.8333 18.1667 18.1325 18.1667 18.5C18.1667 18.8675 17.8675 19.1667 17.5 19.1667C17.1325 19.1667 16.8333 18.8675 16.8333 18.5C16.8333 18.1325 17.1325 17.8333 17.5 17.8333Z" fill="white"/>
</g>
<defs>
<clipPath id="clip0_549_7238">
<rect width="21" height="21" fill="white" transform="translate(0.5 0.5)"/>
</clipPath>
</defs>
</svg>
