<svg width="22" height="22" fill="none" xmlns="http://www.w3.org/2000/svg"><g clip-path="url(#a)" fill="#fff"><path d="M7.266 14h11.158a.617.617 0 0 0 .591-.453l2.461-8.75a.633.633 0 0 0-.1-.548.612.612 0 0 0-.491-.249H5.847l-.44-2.01a.618.618 0 0 0-.6-.49H1.115a.62.62 0 0 0-.615.625.62.62 0 0 0 .615.625h3.198l2.221 10.155a1.879 1.879 0 0 0-1.112 1.72c0 1.034.828 1.875 1.846 1.875h11.156a.62.62 0 0 0 .615-.625.62.62 0 0 0-.615-.625H7.268a.62.62 0 0 1-.616-.625.62.62 0 0 1 .614-.625Zm12.803-8.75-2.11 7.5H7.762l-1.64-7.5H20.07ZM6.5 18.5c0 1.103.897 2 2 2s2-.897 2-2-.897-2-2-2-2 .897-2 2Zm2-.667a.668.668 0 1 1-.002 1.335.668.668 0 0 1 .002-1.335Zm7 .667c0 1.103.897 2 2 2s2-.897 2-2-.897-2-2-2-2 .897-2 2Zm2-.667a.668.668 0 0 1 0 1.334.668.668 0 0 1 0-1.334Z"/></g><defs><clipPath id="a"><path fill="#fff" transform="translate(.5 .5)" d="M0 0h21v21H0z"/></clipPath></defs></svg>