<svg width="1440" height="507" viewBox="0 0 1440 507" fill="none" xmlns="http://www.w3.org/2000/svg">
<path d="M-1.49969 171.5L81.4887 194.8C128.259 207.931 164.559 244.88 176.858 291.876L178.945 299.847C186.371 328.222 204.28 352.725 229.061 368.416V368.416C266.369 392.038 313.859 392.405 351.528 369.362L390.181 345.717C413.597 331.394 441.412 326.047 468.469 330.67L472.537 331.364C516.97 338.955 551.95 373.459 560.15 417.784V417.784C571.443 478.833 631.95 517.654 692.15 502.476L704.589 499.34C738.196 490.867 766.471 468.226 782.086 437.285L793.521 414.627C805.105 391.673 824.691 373.754 848.582 364.252V364.252C880.495 351.559 916.593 355.236 945.29 374.102L994.095 406.187C1002.96 412.014 1012.81 416.186 1023.16 418.499V418.499C1080.89 431.401 1134.58 384.643 1129.74 325.687L1129.43 321.928C1128.49 310.416 1125.35 299.191 1120.18 288.859L1108.11 264.725C1088.1 224.702 1101.27 176.035 1138.74 151.565V151.565C1166.51 133.427 1202.11 132.423 1230.86 148.969L1239.21 153.773C1286.41 180.944 1346.6 166.998 1377.04 121.833L1458.5 1.00011" stroke="#EA0029" stroke-width="2" stroke-miterlimit="2.3662" stroke-linecap="round" stroke-dasharray="8 14"/>
</svg>
